<?xml version="1.0" encoding="UTF-8" standalone="no"?>
<svg id="svg10801" xmlns:rdf="http://www.w3.org/1999/02/22-rdf-syntax-ns#" xmlns="http://www.w3.org/2000/svg" height="102.36mm" width="63.627mm" version="1.1" xmlns:cc="http://creativecommons.org/ns#" xmlns:xlink="http://www.w3.org/1999/xlink" viewBox="0 0 225.45055 362.67559" xmlns:dc="http://purl.org/dc/elements/1.1/">
 <metadata id="metadata10806">
  <rdf:RDF>
   <cc:Work rdf:about="">
    <dc:format>image/svg+xml</dc:format>
    <dc:type rdf:resource="http://purl.org/dc/dcmitype/StillImage"/>
    <dc:title/>
   </cc:Work>
  </rdf:RDF>
 </metadata>
 <g id="layer1" transform="translate(-77.671 -177.11)">
  <g id="g15289">
   <g id="g15900">
    <rect id="rect15737" ry="0" style="fill:#c90daf" rx="95.397" transform="scale(1,-1)" height="120.83" width="225.45" y="-423.31" x="77.671"/>
    <rect id="rect15618" style="fill:#c90daf" rx="95.397" ry="50.103" height="201.93" width="225.45" y="221.38" x="77.671"/>
    <rect id="rect15861" style="fill:#6f0daf" rx="82.954" ry="46.618" height="187.88" width="196.04" y="237.43" x="92.375"/>
    <rect id="rect15742" style="fill:#110daf" rx="28.165" ry="28.106" height="178.4" width="225.45" y="361.38" x="77.671"/>
    <g id="g15760" transform="matrix(1.0489 0 0 1.1377 -9.3153 -57.833)">
     <rect id="rect15744" style="fill:#c90daf" rx="0" ry="19.261" height="108.35" width="170" y="398.95" x="105.4"/>
     <path id="rect15755" style="fill:#f5b18a" d="m111.23 398.29h154.72c3.1514 1.334 8.1177 9.0228 6 9.0899 0 0-52.726 19.531-80.309 20-28.767 0.48893-84.416-18-84.416-18-0.80487-1.0099 3.7002-11.09 4-11.09z"/>
    </g>
    <rect id="rect15758" style="fill:#0a0daf" rx="0" ry="5.4617" height="30.725" width="63.26" y="256.58" x="158.77"/>
    <path id="path15800" d="m162.75 228.8s3.2176-13.583 5.4112-19.969c3.8365-11.17 10.87-21.593 14.753-31.22 3.4263-1.7899 9.6625 1.6357 13.253 3.069 21.875 44.903 20.285 34.084 21.875 44.903l-12.653 2.4679s-15.111-27.814-16.583-40.968c0 0-1.3907 6.7222-2.3435 10.016-4.3557 11.974-7.6161 21.466-10.097 33.937l-13.615-2.2352z" style="fill:#0a0daf"/>
    <path id="rect15870" d="m163.85 258.6c-5.9537 1.777-1.9389 10.075-3.1055 14.508 0.45156 3.9878-2.2117 12.74 4.5293 12.197 17.613-0.29852 35.419 0.58343 52.918-0.41602 4.15-3.9186 0.678-11.035 1.8144-16.113 0.0622-3.5911 1.3316-10.943-4.5195-10.195-17.212 0.0132-34.425-0.0263-51.637 0.0195z" style="fill:#f00daf"/>
    <path id="path15874" d="m216.12 260.54c-17.53 0.43252-35.417-0.63115-52.738 0.52929-2.0177 4.5392 0.34717 9.9204-0.62109 14.809-0.15917 2.776-1.1875 8.6628 3.4999 7.4206 17.023-0.4363 34.534 0.9314 51.227-0.65497 1.9806-5.4667-0.63797-11.481 0.67579-17.166-0.14944-1.4366 0.46024-5.1609-2.043-4.9375z" style="fill:#f0fcaf"/>
    <path id="path15878" d="m179.96 266.51c-3.7214 0.37047-7.4696-0.20677-11.188 0.21289 1.0859 3.7971-2.8464 12.445 3.9492 10.451 13.126 0.0587 26.365 0.67457 39.393-0.20703-0.89637-3.2765 1.8832-10.546-2.4238-10.344-9.9105 0.0694-19.82-0.17411-29.73-0.11328z" style="fill:#fffc89"/>
   </g>
  </g>
 </g>
</svg>
