<?xml version="1.0" encoding="UTF-8" standalone="no"?>
<svg xmlns:rdf="http://www.w3.org/1999/02/22-rdf-syntax-ns#" xmlns="http://www.w3.org/2000/svg" xmlns:osb="http://www.openswatchbook.org/uri/2009/osb" height="297mm" width="210mm" version="1.1" xmlns:cc="http://creativecommons.org/ns#" viewBox="0 0 744.09448819 1052.3622047" xmlns:dc="http://purl.org/dc/elements/1.1/">
 <metadata>
  <rdf:RDF>
   <cc:Work rdf:about="">
    <dc:format>image/svg+xml</dc:format>
    <dc:type rdf:resource="http://purl.org/dc/dcmitype/StillImage"/>
    <dc:title/>
   </cc:Work>
  </rdf:RDF>
 </metadata>
 <path style="fill:#f7b180" d="m354 62.051a248.31 248.31 0 0 0 -248.31 248.31 248.31 248.31 0 0 0 248.31 248.31 248.31 248.31 0 0 0 248.31 -248.31 248.31 248.31 0 0 0 -29.55 -117.28 43.317 43.317 0 0 1 -18.87 -7 43.317 43.317 0 0 1 -19.13 -35.27 57.24 57.24 0 0 1 -65.74 1.39 57.24 57.24 0 0 1 -23.37 -61.991 43.317 43.317 0 0 1 -40.49 -4.137 43.317 43.317 0 0 1 -16.55 -21.332 248.31 248.31 0 0 0 -34.61 -2.689zm0 161.4a86.909 86.909 0 0 1 86.91 86.91 86.909 86.909 0 0 1 -86.91 86.91 86.909 86.909 0 0 1 -86.91 -86.91 86.909 86.909 0 0 1 86.91 -86.91z"/>
 <path style="stroke-linejoin:round;stroke:#000001;stroke-linecap:round;stroke-width:3.3784;fill:#000000" d="m356.41 54.199c-1.65-0.011-3.31-0.006-4.96 0.016-90.17 0.153-178.12 52.305-221.29 131.52-20.92 37.31-31.773 79.95-32.197 122.65 0.545 42.69 5.177 88.14 29.147 88.03 52.86-0.26 5.58-101.58 57.72-103.36 62.76-2.13 21.21 87.46 64.61 87.31 34.89-0.12 26.74-43.55 25.8-71.98 0.91-26.37 14.79-52.5 38.36-65.74 12.23-7.28 26.66-11.17 40.66-11.2 41.21-0.99 78.51 36.01 78.84 76.94 1.48 20.61-7.4 91.66 31.52 92.36 60.29 1.08-9.93-132.81 55.76-130.49 69.08 2.44-15.11 149.14 54.51 148.55 23.79-0.2 34.79-78.87 35.38-110.42-0.54-13.26-0.23-8.84-0.54-13.26-1.91-32.33-10.24-64.18-23.97-93.49a43.317 43.317 0 0 1 -41.87 -3.56 43.317 43.317 0 0 1 -19.13 -35.27 57.24 57.24 0 0 1 -65.74 1.39 57.24 57.24 0 0 1 -23.37 -61.99 43.317 43.317 0 0 1 -40.49 -4.138 43.317 43.317 0 0 1 -18.54 -42.888c-6.72-0.601-13.46-0.937-20.21-0.985z"/>
 <path d="m356.41 52.199c-1.6539-0.0117-3.3085-0.006-4.9629 0.01563-90.167 0.15285-178.12 52.307-221.29 131.52-20.919 37.316-31.773 79.952-32.197 122.66 0.54493 42.69 5.1768 88.143 29.15 88.027 52.857-0.25404 5.5761-101.58 57.721-103.36 62.759-2.1372 21.202 87.458 64.604 87.309 34.895-0.12032 26.744-43.555 25.799-71.98 0.916-26.372 14.798-52.5 38.361-65.736 12.234-7.2892 26.66-11.17 40.66-11.209 41.217-0.98548 78.515 36.018 78.84 76.945 1.4838 20.612-7.4015 91.663 31.523 92.359 60.29 1.0784-9.9271-132.81 55.756-130.49 69.08 2.4408-15.109 149.13 54.516 148.54 23.788-0.20088 34.789-78.873 35.377-110.42-0.53906-13.26-0.23191-8.8407-0.53906-13.26-1.8442-31.185-9.6392-61.925-22.504-90.363a43.317 48 33.917 0 1 -49.08 1.8555 43.317 48 33.917 0 1 -18.006 -36.939 57.24 63.429 33.917 0 1 -68.023 4.7891 57.24 63.429 33.917 0 1 -21.053 -65.438 43.317 48 33.917 0 1 -41.65 -2.418 43.317 48 33.917 0 1 -15.287 -51.641c-5.8919-0.4673-11.801-0.73532-17.715-0.77734z" style="stroke-linejoin:round;stroke:#bf75ff;stroke-linecap:round;stroke-width:25;fill:#d8a2ff"/>
 <path style="opacity:0.496;fill-opacity:.70199;fill:#ffffff" d="m517.4 270.25c-12.98 0.4-20.08 6.68-23.83 16.28 1.67 9.06 2.39 18.33 2.02 27.67-0.2 10.65-1.79 21.14-4.57 31.29 1.41 29.24 0.55 55.74-26.4 55.26-1.03-0.02-2.03-0.1-3-0.21-26.62 31.37-66.02 52.07-107.65 51.33-69.39 0.35-134.54-57.11-140.73-126.63-0.8-7.5-0.91-15.03-0.41-22.52-5.73-6.28-14.42-10.12-28-9.66-15.09 0.52-21.85 9.38-25.12 21.72 1.98 62.3 34.31 123.98 87.19 158.01 63.67 41.82 152.49 42.86 215.41-0.89 57.55-38.5 92.08-109.67 85.66-178.49-3.09-13.43-10.81-22.55-27.59-23.15-1.03-0.03-2.02-0.04-2.98-0.01z"/>
 <path style="opacity:0.496;fill-opacity:.55629;fill:#ffffff" d="m357.83 116.1c-1.44-0.01-2.88-0.01-4.32 0.02-88.88-1.36-173.62 67.51-190.11 155.27-1.7 8.16-2.81 16.42-3.37 24.72 13.64-14.74 38.13-14.55 53.79-3.04 7.38-53.13 45.68-102 97.75-117.43 14.89-4.66 30.51-6.66 46.09-6.5 61.52 0.41 117.02 47.65 133.25 105.9 3.77-5.11 8.85-9.1 15.36-10.97 12.62-4.54 28.02-1.72 38.13 6.92-4.49-21.55-12.85-42.29-24.33-61.16a43.317 55.024 33.917 0 1 -1.71 -2.77c-4.44-7.04-9.31-13.79-14.59-20.23a57.24 72.711 33.917 0 1 -62.01 3.05 57.24 72.711 33.917 0 1 -20.01 -61.53c-0.18-0.07-0.36-0.13-0.54-0.2-3.63-1.35-7.32-2.6-11.03-3.74a43.317 55.024 33.917 0 1 -29.38 -4.98 43.317 55.024 33.917 0 1 -2.6 -1.94c-6.76-0.85-13.56-1.33-20.37-1.39zm125.37 250.77c-4.19 9.07-9.35 17.71-15.32 25.77 6.45-0.84 12.23-4.88 13.17-12.1 1.12-4.54 1.79-9.1 2.15-13.67z"/>
 <rect ry="9.6498" style="fill:#fff5a0" transform="rotate(37.519)" height="19.3" width="68.057" y="-135.94" x="297.11"/>
 <rect ry="9.6498" style="fill:#fff5a0" transform="rotate(37.519)" height="19.3" width="68.057" y="-104.17" x="458.16"/>
 <rect ry="9.6498" style="fill:#fff5a0" transform="rotate(37.519)" height="19.3" width="68.057" y="28.897" x="297.69"/>
 <rect ry="9.6498" style="fill:#95ffff" transform="rotate(-80.498)" height="19.3" width="68.057" y="500" x="-291.79"/>
 <rect ry="9.6498" style="fill:#95ffff" transform="matrix(.74948 -.66202 .66202 .74948 0 0)" height="19.3" width="68.057" y="256.54" x="-55.583"/>
 <rect ry="9.6498" style="fill:#95ffff" transform="rotate(-57.054)" height="19.3" width="68.057" y="364.03" x="-4.8409"/>
 <rect ry="9.6498" style="fill:#ff00ff" transform="matrix(-.40943 -.91234 .91234 -.40943 0 0)" height="19.3" width="68.057" y="395.37" x="-503.95"/>
 <rect ry="9.6498" style="fill:#ff00ff" transform="rotate(-71.211)" height="19.3" width="68.057" y="212.87" x="-283.65"/>
 <rect ry="9.6498" style="fill:#ff00ff" transform="matrix(-.40943 -.91234 .91234 -.40943 0 0)" height="19.3" width="68.057" y="150.21" x="-269.76"/>
</svg>
