<?xml version="1.0" encoding="UTF-8" standalone="no"?>
<svg id="svg24363" xmlns:rdf="http://www.w3.org/1999/02/22-rdf-syntax-ns#" xmlns="http://www.w3.org/2000/svg" viewBox="0 0 77.598147 68.806441" height="19.419mm" width="21.9mm" version="1.1" xmlns:cc="http://creativecommons.org/ns#" xmlns:dc="http://purl.org/dc/elements/1.1/">
	<metadata id="metadata24368">
		<rdf:RDF>
			<cc:Work rdf:about="">
				<dc:format>image/svg+xml</dc:format>
				<dc:type rdf:resource="http://purl.org/dc/dcmitype/StillImage"/>
				<dc:title/>
			</cc:Work>
		</rdf:RDF>
	</metadata>
	<g id="layer2" transform="translate(-87.629 -39.534)">
		<g id="g30267" transform="translate(-180)">
			<g id="heart">
				<g id="g29873">
					<g id="g29795">
						<path id="path29411" style="fill:#f9a4f5" d="m326 39.534 4.2444 5.2526 2.3191-2.4764z"/>
						<path id="path29413" style="fill:#f9a4f5" d="m322.36 47.345 3.64-7.811l-5.0044 0.267z"/>
						<path id="path29417" style="fill:#f9a4f5" d="m315.08 42.31 7.2801 5.0348-1.3604-7.5439z"/>
						<path id="path29419" style="fill:#f9a4f5" d="m322.36 47.345 7.8883-2.5584l-4.25-5.253z"/>
						<path id="path29423" style="fill:#e8a4f5" d="m294.64 48.624 7.4709-0.88682-6.9347-7.2362z"/>
						<path id="path29425" style="fill:#8ac6f5" d="m285.71 41.008 8.9261 7.6154 0.53619-8.123z"/>
						<path id="path29427" style="fill:#f996f5" d="m274.98 45.928 9.8577 4.6147 0.88101-9.5342z"/>
						<path id="path29429" style="fill:#c7c6f5" d="m284.83 50.543 9.8071-1.9188-8.9261-7.6154z"/>
						<path id="path29431" style="fill:#f9a4f5" d="m330.24 44.786 10.158 3.2523-7.8392-5.7287z"/>
						<path id="path29433" style="fill:#f992f5" d="m311.16 48.642 11.2-1.2969-7.2801-5.0348z"/>
						<path id="path29435" style="fill:#f9a4f5" d="m275.67 53.101 9.1675-2.5584-9.8577-4.6147z"/>
						<path id="path29437" style="fill:#f9a4f5" d="m311.16 48.642 6.2961 7.0178 4.9036-8.3147z"/>
						<path id="path29439" style="fill:#f9bff5" d="m333.23 55.873 7.1735-7.8341-10.158-3.2523z"/>
						<path id="path29441" style="fill:#f9bff5" d="m325.13 55.446 5.1168-10.66-7.8883 2.5584z"/>
						<path id="path29443" style="fill:#f9a4f5" d="m333.23 55.873 6.8224-0.6396 0.35117-7.1945z"/>
						<path id="path29445" style="fill:#c3a4f5" d="m267.63 56.782 8.0369-3.6813-0.69019-7.173z"/>
						<path id="path29447" style="fill:#f9bff5" d="m284.83 50.543 9.1675 4.9036 0.63962-6.8223z"/>
						<path id="path29449" style="fill:#f9bdf5" d="m325.13 55.446 8.1015 0.4264-2.9848-11.086z"/>
						<path id="path29451" style="fill:#f9bdf5" d="m317.45 55.659 7.6751-0.2132-2.7716-8.1015z"/>
						<path id="path29453" style="fill:#f9a4f5" d="m294 55.446 8.1105-7.7092-7.4709 0.88682z"/>
						<path id="path29455" style="fill:#f9a4f5" d="m345.23 58.893-4.8241-10.854-0.35117 7.1945z"/>
						<path id="path29459" style="fill:#f979f5" d="m307.24 59.194 10.21-3.535-6.29-7.017z"/>
						<path id="path29461" style="fill:#f9a4f5" d="m294 55.446 13.236 3.7481-5.1256-11.457z"/>
						<path id="path29463" style="fill:#f9bff5" d="m275.67 53.101 8.1015 8.9543 1.066-11.513z"/>
						<path id="path29465" style="fill:#f980f5" d="m267.63 56.782 6.5445 5.9127 1.4924-9.5939z"/>
						<path id="path29467" style="fill:#f9bdf5" d="m283.77 62.055 10.234-6.6092-9.1675-4.9036z"/>
						<path id="path29469" style="fill:#f9bff5" d="m274.17 62.695 9.5939-0.6396-8.1015-8.9543z"/>
						<path id="path29471" style="fill:#f9bff5" d="m327.9 65.04 5.33-9.1675-8.1015-0.4264z"/>
						<path id="path29473" style="fill:#f9bdf5" d="m327.9 65.04 6.396 0.85279-1.066-10.02z"/>
						<path id="path29475" style="fill:#f9bff5" d="m334.3 65.893 5.7563-10.66-6.8224 0.6396z"/>
						<path id="path29477" style="fill:#f9bff5" d="m283.77 62.055 8.1016 4.264 2.132-10.873z"/>
						<path id="path29479" style="fill:#f9a4f5" d="m334.3 65.893 10.932-7.0001-5.1753-3.6598z"/>
						<path id="path29481" style="fill:#f9bdf5" d="m317.45 55.659 10.447 9.3807-2.7716-9.5939z"/>
						<path id="path29483" style="fill:#f9bff5" d="m291.87 66.319 15.368-7.125-13.236-3.7481z"/>
						<path id="path29485" style="fill:#bea4f5" d="m278.86 71.436 4.9036-9.3807-9.5939 0.6396z"/>
						<path id="path29487" style="fill:#f9a4f5" d="m307.24 59.194 9.5761 12.455 0.63958-15.99z"/>
						<path id="path29489" style="fill:#f9b0f5" d="m316.81 71.649 11.086-6.6092-10.447-9.3807z"/>
						<path id="path29491" style="fill:#f9a4f5" d="m306.79 69.944 10.02 1.7056-9.5761-12.455z"/>
						<path id="path29493" style="fill:#f9a4f5" d="m291.87 66.319 14.924 3.6244 0.44422-10.749z"/>
						<path id="path29495" style="fill:#84a4f5" d="m267.63 56.782 0.71356 17.487 5.831-11.575z"/>
						<path id="path29497" style="fill:#8ea4f5" d="m268.34 74.27 10.521-2.8337-4.6904-8.7411z"/>
						<path id="path29499" style="fill:#f9bff5" d="m278.86 71.436 13.005-5.1168-8.1016-4.264z"/>
						<path id="path29501" style="fill:#f9bff5" d="m284.83 76.34 7.0356-10.02-13.005 5.1168z"/>
						<path id="path29503" style="fill:#f995f5" d="m334.3 65.893 8.8211 10.487 2.1106-17.487z"/>
						<path id="path29505" style="fill:#f9a4f5" d="m327.9 65.04 4.9036 12.366 1.4924-11.513z"/>
						<path id="path29507" style="fill:#f9a4f5" d="m291.87 66.319 10.447 11.726 4.4772-8.1015z"/>
						<path id="path29509" style="fill:#e5a4f5" d="m332.8 77.406 10.313-1.0253-8.8211-10.487z"/>
						<path id="path29511" style="fill:#f9a4f5" d="m316.81 71.649 15.99 5.7564-4.9036-12.366z"/>
						<path id="path29513" style="fill:#45c0f5" d="m278.01 82.096 6.8224-5.7564-5.9696-4.9036z"/>
						<path id="path29515" style="fill:#f9a4f5" d="m318.94 80.177 13.86-2.771-15.99-5.757z"/>
						<path id="path29517" style="fill:#45a4f5" d="m268.34 74.27 9.6686 7.8263 0.85279-10.66z"/>
						<path id="path29519" style="fill:#f9bff5" d="m284.83 76.34 17.482 1.7056-10.447-11.726z"/>
						<path id="path29521" style="fill:#f9a4f5" d="m311.7 84.441 7.2488-4.264-2.132-8.5279z"/>
						<path id="path29523" style="fill:#f9a4f5" d="m306.79 69.944 4.9036 14.497 5.1168-12.792z"/>
						<path id="path29525" style="fill:#f9a4f5" d="m302.32 78.045 9.3807 6.396-4.9036-14.497z"/>
						<path id="path29527" style="fill:#f9a4f5" d="m292.93 86.147 9.3807-8.1015-17.482-1.7056z"/>
						<path id="path29529" style="fill:#c7c6f5" d="m325.34 88.918 7.4619-11.513-13.858 2.7716z"/>
						<path id="path29531" style="fill:#d2a4f5" d="m335.58 89.044 7.5377-12.663-10.313 1.0253z"/>
						<path id="path29533" style="fill:#a0a4f5" d="m325.34 88.918 10.238 0.12529-2.7758-11.638z"/>
						<path id="path29535" style="fill:#f9a4f5" d="m278.01 82.096 14.924 4.0508-8.1015-9.8071z"/>
						<path id="path29537" style="fill:#f9a4f5" d="m304.23 92.116 7.462-7.6751-9.3807-6.396z"/>
						<path id="path29539" style="fill:#f9a4f5" d="m292.93 86.147 11.3 5.9696-1.9188-14.071z"/>
						<path id="path29541" style="fill:#f9a4f5" d="m316.17 93.182 2.7716-13.005-7.2488 4.264z"/>
						<path id="path29543" style="fill:#f9a4f5" d="m316.17 93.182 9.1675-4.264-6.3959-8.7411z"/>
						<path id="path29545" style="fill:#d4a4f5" d="m278.9 91.154 14.04-5.0074-14.924-4.0508z"/>
						<path id="path29547" style="fill:#f9a4f5" d="m304.23 92.116 11.939 1.066-4.4771-8.7411z"/>
						<path id="path29549" style="fill:#45c0f5" d="m326.23 96.581 9.3467-7.5377-10.238-0.12529z"/>
						<path id="path29551" style="fill:#45a4f5" d="m316.17 93.182 10.059 3.399-0.89099-7.663z"/>
						<path id="path29553" style="fill:#9a98f5" d="m268.34 74.27 10.553 16.884-0.88425-9.0582z"/>
						<path id="path29555" style="fill:#afa4f5" d="m293.67 101.71 10.565-9.5907-11.3-5.9696z"/>
						<path id="path29557" style="fill:#f990f5" d="m278.9 91.154 14.774 10.553-0.73425-15.56z"/>
						<path id="path29559" style="fill:#45a4f5" d="m315.98 102.01 10.251-5.4271-10.059-3.399z"/>
						<path id="path29561" style="fill:#d4a4f5" d="m304.23 92.116 11.746 9.8922 0.19275-8.8262z"/>
						<path id="path29563" style="fill:#ef93f5" d="m305.73 108.34 10.251-6.3317-11.746-9.8922z"/>
						<path id="path29565" style="fill:#f991f5" d="m293.67 101.71 12.06 6.6332-1.4951-16.224z"/>
						<path id="path29567" style="fill:#f9a4f5" d="m305.73 108.34 20.503-11.759-10.251 5.4271z"/>
					</g>
				</g>
				<g id="g29952">
					<g id="g29954">
						<path id="path29956" style="fill:#f9a4f5" d="m326 39.534 4.2444 5.2526 2.3191-2.4764z"/>
						<path id="path29958" style="fill:#f9a4f5" d="m322.36 47.345 3.64-7.811l-5.0044 0.267z"/>
						<path id="path29960" style="fill:#f9a4f5" d="m315.08 42.31 7.2801 5.0348-1.3604-7.5439z"/>
						<path id="path29962" style="fill:#f9a4f5" d="m322.36 47.345 7.8883-2.5584l-4.25-5.253z"/>
						<path id="path29964" style="fill:#e8a4f5" d="m294.64 48.624 7.4709-0.88682-6.9347-7.2362z"/>
						<path id="path29966" style="fill:#8ac6f5" d="m285.71 41.008 8.9261 7.6154 0.53619-8.123z"/>
						<path id="path29968" style="fill:#f996f5" d="m274.98 45.928 9.8577 4.6147 0.88101-9.5342z"/>
						<path id="path29970" style="fill:#c7c6f5" d="m284.83 50.543 9.8071-1.9188-8.9261-7.6154z"/>
						<path id="path29972" style="fill:#f9a4f5" d="m330.24 44.786 10.158 3.2523-7.8392-5.7287z"/>
						<path id="path29974" style="fill:#f992f5" d="m311.16 48.642 11.2-1.2969-7.2801-5.0348z"/>
						<path id="path29976" style="fill:#f9a4f5" d="m275.67 53.101 9.1675-2.5584-9.8577-4.6147z"/>
						<path id="path29978" style="fill:#f9a4f5" d="m311.16 48.642 6.2961 7.0178 4.9036-8.3147z"/>
						<path id="path29980" style="fill:#f9bff5" d="m333.23 55.873 7.1735-7.8341-10.158-3.2523z"/>
						<path id="path29982" style="fill:#f9bff5" d="m325.13 55.446 5.1168-10.66-7.8883 2.5584z"/>
						<path id="path29984" style="fill:#f9a4f5" d="m333.23 55.873 6.8224-0.6396 0.35117-7.1945z"/>
						<path id="path29986" style="fill:#c3a4f5" d="m267.63 56.782 8.0369-3.6813-0.69019-7.173z"/>
						<path id="path29988" style="fill:#f9bff5" d="m284.83 50.543 9.1675 4.9036 0.63962-6.8223z"/>
						<path id="path29990" style="fill:#f9bdf5" d="m325.13 55.446 8.1015 0.4264-2.9848-11.086z"/>
						<path id="path29992" style="fill:#f9bdf5" d="m317.45 55.659 7.6751-0.2132-2.7716-8.1015z"/>
						<path id="path29994" style="fill:#f9a4f5" d="m294 55.446 8.1105-7.7092-7.4709 0.88682z"/>
						<path id="path29996" style="fill:#f9a4f5" d="m345.23 58.893-4.8241-10.854-0.35117 7.1945z"/>
						<path id="path29998" style="fill:#f979f5" d="m307.24 59.194 10.21-3.535-6.29-7.017z"/>
						<path id="path30000" style="fill:#f9a4f5" d="m294 55.446 13.236 3.7481-5.1256-11.457z"/>
						<path id="path30002" style="fill:#f9bff5" d="m275.67 53.101 8.1015 8.9543 1.066-11.513z"/>
						<path id="path30004" style="fill:#f980f5" d="m267.63 56.782 6.5445 5.9127 1.4924-9.5939z"/>
						<path id="path30006" style="fill:#f9bdf5" d="m283.77 62.055 10.234-6.6092-9.1675-4.9036z"/>
						<path id="path30008" style="fill:#f9bff5" d="m274.17 62.695 9.5939-0.6396-8.1015-8.9543z"/>
						<path id="path30010" style="fill:#f9bff5" d="m327.9 65.04 5.33-9.1675-8.1015-0.4264z"/>
						<path id="path30012" style="fill:#f9bdf5" d="m327.9 65.04 6.396 0.85279-1.066-10.02z"/>
						<path id="path30014" style="fill:#f9bff5" d="m334.3 65.893 5.7563-10.66-6.8224 0.6396z"/>
						<path id="path30016" style="fill:#f9bff5" d="m283.77 62.055 8.1016 4.264 2.132-10.873z"/>
						<path id="path30018" style="fill:#f9a4f5" d="m334.3 65.893 10.932-7.0001-5.1753-3.6598z"/>
						<path id="path30020" style="fill:#f9bdf5" d="m317.45 55.659 10.447 9.3807-2.7716-9.5939z"/>
						<path id="path30022" style="fill:#f9bff5" d="m291.87 66.319 15.368-7.125-13.236-3.7481z"/>
						<path id="path30024" style="fill:#bea4f5" d="m278.86 71.436 4.9036-9.3807-9.5939 0.6396z"/>
						<path id="path30026" style="fill:#f9a4f5" d="m307.24 59.194 9.5761 12.455 0.63958-15.99z"/>
						<path id="path30028" style="fill:#f9b0f5" d="m316.81 71.649 11.086-6.6092-10.447-9.3807z"/>
						<path id="path30030" style="fill:#f9a4f5" d="m306.79 69.944 10.02 1.7056-9.5761-12.455z"/>
						<path id="path30032" style="fill:#f9a4f5" d="m291.87 66.319 14.924 3.6244 0.44422-10.749z"/>
						<path id="path30034" style="fill:#84a4f5" d="m267.63 56.782 0.71356 17.487 5.831-11.575z"/>
						<path id="path30036" style="fill:#8ea4f5" d="m268.34 74.27 10.521-2.8337-4.6904-8.7411z"/>
						<path id="path30038" style="fill:#f9bff5" d="m278.86 71.436 13.005-5.1168-8.1016-4.264z"/>
						<path id="path30040" style="fill:#f9bff5" d="m284.83 76.34 7.0356-10.02-13.005 5.1168z"/>
						<path id="path30042" style="fill:#f995f5" d="m334.3 65.893 8.8211 10.487 2.1106-17.487z"/>
						<path id="path30044" style="fill:#f9a4f5" d="m327.9 65.04 4.9036 12.366 1.4924-11.513z"/>
						<path id="path30046" style="fill:#f9a4f5" d="m291.87 66.319 10.447 11.726 4.4772-8.1015z"/>
						<path id="path30048" style="fill:#e5a4f5" d="m332.8 77.406 10.313-1.0253-8.8211-10.487z"/>
						<path id="path30050" style="fill:#f9a4f5" d="m316.81 71.649 15.99 5.7564-4.9036-12.366z"/>
						<path id="path30052" style="fill:#45c0f5" d="m278.01 82.096 6.8224-5.7564-5.9696-4.9036z"/>
						<path id="path30054" style="fill:#f9a4f5" d="m318.94 80.177 13.86-2.771-15.99-5.757z"/>
						<path id="path30056" style="fill:#45a4f5" d="m268.34 74.27 9.6686 7.8263 0.85279-10.66z"/>
						<path id="path30058" style="fill:#f9bff5" d="m284.83 76.34 17.482 1.7056-10.447-11.726z"/>
						<path id="path30060" style="fill:#f9a4f5" d="m311.7 84.441 7.2488-4.264-2.132-8.5279z"/>
						<path id="path30062" style="fill:#f9a4f5" d="m306.79 69.944 4.9036 14.497 5.1168-12.792z"/>
						<path id="path30064" style="fill:#f9a4f5" d="m302.32 78.045 9.3807 6.396-4.9036-14.497z"/>
						<path id="path30066" style="fill:#f9a4f5" d="m292.93 86.147 9.3807-8.1015-17.482-1.7056z"/>
						<path id="path30068" style="fill:#c7c6f5" d="m325.34 88.918 7.4619-11.513-13.858 2.7716z"/>
						<path id="path30070" style="fill:#d2a4f5" d="m335.58 89.044 7.5377-12.663-10.313 1.0253z"/>
						<path id="path30072" style="fill:#a0a4f5" d="m325.34 88.918 10.238 0.12529-2.7758-11.638z"/>
						<path id="path30074" style="fill:#f9a4f5" d="m278.01 82.096 14.924 4.0508-8.1015-9.8071z"/>
						<path id="path30076" style="fill:#f9a4f5" d="m304.23 92.116 7.462-7.6751-9.3807-6.396z"/>
						<path id="path30078" style="fill:#f9a4f5" d="m292.93 86.147 11.3 5.9696-1.9188-14.071z"/>
						<path id="path30080" style="fill:#f9a4f5" d="m316.17 93.182 2.7716-13.005-7.2488 4.264z"/>
						<path id="path30082" style="fill:#f9a4f5" d="m316.17 93.182 9.1675-4.264-6.3959-8.7411z"/>
						<path id="path30084" style="fill:#d4a4f5" d="m278.9 91.154 14.04-5.0074-14.924-4.0508z"/>
						<path id="path30086" style="fill:#f9a4f5" d="m304.23 92.116 11.939 1.066-4.4771-8.7411z"/>
						<path id="path30088" style="fill:#45c0f5" d="m326.23 96.581 9.3467-7.5377-10.238-0.12529z"/>
						<path id="path30090" style="fill:#45a4f5" d="m316.17 93.182 10.059 3.399-0.89099-7.663z"/>
						<path id="path30092" style="fill:#9a98f5" d="m268.34 74.27 10.553 16.884-0.88425-9.0582z"/>
						<path id="path30094" style="fill:#afa4f5" d="m293.67 101.71 10.565-9.5907-11.3-5.9696z"/>
						<path id="path30096" style="fill:#f990f5" d="m278.9 91.154 14.774 10.553-0.73425-15.56z"/>
						<path id="path30098" style="fill:#45a4f5" d="m315.98 102.01 10.251-5.4271-10.059-3.399z"/>
						<path id="path30100" style="fill:#d4a4f5" d="m304.23 92.116 11.746 9.8922 0.19275-8.8262z"/>
						<path id="path30102" style="fill:#ef93f5" d="m305.73 108.34 10.251-6.3317-11.746-9.8922z"/>
						<path id="path30104" style="fill:#f991f5" d="m293.67 101.71 12.06 6.6332-1.4951-16.224z"/>
						<path id="path30106" style="fill:#f9a4f5" d="m305.73 108.34 20.503-11.759-10.251 5.4271z"/>
					</g>
				</g>
			</g>
		</g>
	</g>
</svg>
